<?xml version="1.0" standalone="no"?>
<!DOCTYPE svg PUBLIC "-//W3C//DTD SVG 1.1//EN" "http://www.w3.org/Graphics/SVG/1.1/DTD/svg11.dtd">
<svg version="1.1" width="1800" height="796" onload="init(evt)" viewBox="0 0 1800 796" xmlns="http://www.w3.org/2000/svg" xmlns:xlink="http://www.w3.org/1999/xlink">
<!-- Flame graph stack visualization. See https://github.com/brendangregg/FlameGraph for latest version, and http://www.brendangregg.com/flamegraphs.html for examples. -->
<!-- NOTES:  -->
<defs>
	<linearGradient id="background" y1="0" y2="1" x1="0" x2="0" >
		<stop stop-color="#eeeeee" offset="5%" />
		<stop stop-color="#eeeeb0" offset="95%" />
	</linearGradient>
</defs>
<style type="text/css">
	text { font-family:Verdana; font-size:14px; fill:rgb(0,0,0); }
	#search, #ignorecase { opacity:0.1; cursor:pointer; }
	#search:hover, #search.show, #ignorecase:hover, #ignorecase.show { opacity:1; }
	#subtitle { text-anchor:middle; font-color:rgb(160,160,160); }
	#title { text-anchor:middle; font-size:19px}
	#unzoom { cursor:pointer; }
	#frames > *:hover { stroke:black; stroke-width:0.5; cursor:pointer; }
	.hide { display:none; }
	.parent { opacity:0.5; }
</style>
<script type="text/ecmascript">
<![CDATA[
	"use strict";
	var details, searchbtn, unzoombtn, matchedtxt, svg, searching, currentSearchTerm, ignorecase, ignorecaseBtn;
	function init(evt) {
		details = document.getElementById("details").firstChild;
		searchbtn = document.getElementById("search");
		ignorecaseBtn = document.getElementById("ignorecase");
		unzoombtn = document.getElementById("unzoom");
		matchedtxt = document.getElementById("matched");
		svg = document.getElementsByTagName("svg")[0];
		searching = 0;
		currentSearchTerm = null;

		// use GET parameters to restore a flamegraphs state.
		var params = get_params();
		if (params.x && params.y)
			zoom(find_group(document.querySelector('[x="' + params.x + '"][y="' + params.y + '"]')));
                if (params.s) search(params.s);
	}

	// event listeners
	window.addEventListener("click", function(e) {
		var target = find_group(e.target);
		if (target) {
			if (target.nodeName == "a") {
				if (e.ctrlKey === false) return;
				e.preventDefault();
			}
			if (target.classList.contains("parent")) unzoom(true);
			zoom(target);
			if (!document.querySelector('.parent')) {
				// we have basically done a clearzoom so clear the url
				var params = get_params();
				if (params.x) delete params.x;
				if (params.y) delete params.y;
				history.replaceState(null, null, parse_params(params));
				unzoombtn.classList.add("hide");
				return;
			}

			// set parameters for zoom state
			var el = target.querySelector("rect");
			if (el && el.attributes && el.attributes.y && el.attributes._orig_x) {
				var params = get_params()
				params.x = el.attributes._orig_x.value;
				params.y = el.attributes.y.value;
				history.replaceState(null, null, parse_params(params));
			}
		}
		else if (e.target.id == "unzoom") clearzoom();
		else if (e.target.id == "search") search_prompt();
		else if (e.target.id == "ignorecase") toggle_ignorecase();
	}, false)

	// mouse-over for info
	// show
	window.addEventListener("mouseover", function(e) {
		var target = find_group(e.target);
		if (target) details.nodeValue = "Function: " + g_to_text(target);
	}, false)

	// clear
	window.addEventListener("mouseout", function(e) {
		var target = find_group(e.target);
		if (target) details.nodeValue = ' ';
	}, false)

	// ctrl-F for search
	// ctrl-I to toggle case-sensitive search
	window.addEventListener("keydown",function (e) {
		if (e.keyCode === 114 || (e.ctrlKey && e.keyCode === 70)) {
			e.preventDefault();
			search_prompt();
		}
		else if (e.ctrlKey && e.keyCode === 73) {
			e.preventDefault();
			toggle_ignorecase();
		}
	}, false)

	// functions
	function get_params() {
		var params = {};
		var paramsarr = window.location.search.substr(1).split('&');
		for (var i = 0; i < paramsarr.length; ++i) {
			var tmp = paramsarr[i].split("=");
			if (!tmp[0] || !tmp[1]) continue;
			params[tmp[0]]  = decodeURIComponent(tmp[1]);
		}
		return params;
	}
	function parse_params(params) {
		var uri = "?";
		for (var key in params) {
			uri += key + '=' + encodeURIComponent(params[key]) + '&';
		}
		if (uri.slice(-1) == "&")
			uri = uri.substring(0, uri.length - 1);
		if (uri == '?')
			uri = window.location.href.split('?')[0];
		return uri;
	}
	function find_child(node, selector) {
		var children = node.querySelectorAll(selector);
		if (children.length) return children[0];
	}
	function find_group(node) {
		var parent = node.parentElement;
		if (!parent) return;
		if (parent.id == "frames") return node;
		return find_group(parent);
	}
	function orig_save(e, attr, val) {
		if (e.attributes["_orig_" + attr] != undefined) return;
		if (e.attributes[attr] == undefined) return;
		if (val == undefined) val = e.attributes[attr].value;
		e.setAttribute("_orig_" + attr, val);
	}
	function orig_load(e, attr) {
		if (e.attributes["_orig_"+attr] == undefined) return;
		e.attributes[attr].value = e.attributes["_orig_" + attr].value;
		e.removeAttribute("_orig_"+attr);
	}
	function g_to_text(e) {
		var text = find_child(e, "title").firstChild.nodeValue;
		return (text)
	}
	function g_to_func(e) {
		var func = g_to_text(e);
		// if there's any manipulation we want to do to the function
		// name before it's searched, do it here before returning.
		return (func);
	}
	function update_text(e) {
		var r = find_child(e, "rect");
		var t = find_child(e, "text");
		var w = parseFloat(r.attributes.width.value) -3;
		var txt = find_child(e, "title").textContent.replace(/\([^(]*\)$/,"");
		t.attributes.x.value = parseFloat(r.attributes.x.value) + 3;

		// Smaller than this size won't fit anything
		if (w < 2 * 14 * 0.59) {
			t.textContent = "";
			return;
		}

		t.textContent = txt;
		var sl = t.getSubStringLength(0, txt.length);
		// check if only whitespace or if we can fit the entire string into width w
		if (/^ *$/.test(txt) || sl < w)
			return;

		// this isn't perfect, but gives a good starting point
		// and avoids calling getSubStringLength too often
		var start = Math.floor((w/sl) * txt.length);
		for (var x = start; x > 0; x = x-2) {
			if (t.getSubStringLength(0, x + 2) <= w) {
				t.textContent = txt.substring(0, x) + "..";
				return;
			}
		}
		t.textContent = "";
	}

	// zoom
	function zoom_reset(e) {
		if (e.attributes != undefined) {
			orig_load(e, "x");
			orig_load(e, "width");
		}
		if (e.childNodes == undefined) return;
		for (var i = 0, c = e.childNodes; i < c.length; i++) {
			zoom_reset(c[i]);
		}
	}
	function zoom_child(e, x, ratio) {
		if (e.attributes != undefined) {
			if (e.attributes.x != undefined) {
				orig_save(e, "x");
				e.attributes.x.value = (parseFloat(e.attributes.x.value) - x - 10) * ratio + 10;
				if (e.tagName == "text")
					e.attributes.x.value = find_child(e.parentNode, "rect[x]").attributes.x.value + 3;
			}
			if (e.attributes.width != undefined) {
				orig_save(e, "width");
				e.attributes.width.value = parseFloat(e.attributes.width.value) * ratio;
			}
		}

		if (e.childNodes == undefined) return;
		for (var i = 0, c = e.childNodes; i < c.length; i++) {
			zoom_child(c[i], x - 10, ratio);
		}
	}
	function zoom_parent(e) {
		if (e.attributes) {
			if (e.attributes.x != undefined) {
				orig_save(e, "x");
				e.attributes.x.value = 10;
			}
			if (e.attributes.width != undefined) {
				orig_save(e, "width");
				e.attributes.width.value = parseInt(svg.width.baseVal.value) - (10 * 2);
			}
		}
		if (e.childNodes == undefined) return;
		for (var i = 0, c = e.childNodes; i < c.length; i++) {
			zoom_parent(c[i]);
		}
	}
	function zoom(node) {
		var attr = find_child(node, "rect").attributes;
		var width = parseFloat(attr.width.value);
		var xmin = parseFloat(attr.x.value);
		var xmax = parseFloat(xmin + width);
		var ymin = parseFloat(attr.y.value);
		var ratio = (svg.width.baseVal.value - 2 * 10) / width;

		// XXX: Workaround for JavaScript float issues (fix me)
		var fudge = 0.0001;

		unzoombtn.classList.remove("hide");

		var el = document.getElementById("frames").children;
		for (var i = 0; i < el.length; i++) {
			var e = el[i];
			var a = find_child(e, "rect").attributes;
			var ex = parseFloat(a.x.value);
			var ew = parseFloat(a.width.value);
			var upstack;
			// Is it an ancestor
			if (0 == 0) {
				upstack = parseFloat(a.y.value) > ymin;
			} else {
				upstack = parseFloat(a.y.value) < ymin;
			}
			if (upstack) {
				// Direct ancestor
				if (ex <= xmin && (ex+ew+fudge) >= xmax) {
					e.classList.add("parent");
					zoom_parent(e);
					update_text(e);
				}
				// not in current path
				else
					e.classList.add("hide");
			}
			// Children maybe
			else {
				// no common path
				if (ex < xmin || ex + fudge >= xmax) {
					e.classList.add("hide");
				}
				else {
					zoom_child(e, xmin, ratio);
					update_text(e);
				}
			}
		}
		search();
	}
	function unzoom(dont_update_text) {
		unzoombtn.classList.add("hide");
		var el = document.getElementById("frames").children;
		for(var i = 0; i < el.length; i++) {
			el[i].classList.remove("parent");
			el[i].classList.remove("hide");
			zoom_reset(el[i]);
			if(!dont_update_text) update_text(el[i]);
		}
		search();
	}
	function clearzoom() {
		unzoom();

		// remove zoom state
		var params = get_params();
		if (params.x) delete params.x;
		if (params.y) delete params.y;
		history.replaceState(null, null, parse_params(params));
	}

	// search
	function toggle_ignorecase() {
		ignorecase = !ignorecase;
		if (ignorecase) {
			ignorecaseBtn.classList.add("show");
		} else {
			ignorecaseBtn.classList.remove("show");
		}
		reset_search();
		search();
	}
	function reset_search() {
		var el = document.querySelectorAll("#frames rect");
		for (var i = 0; i < el.length; i++) {
			orig_load(el[i], "fill")
		}
		var params = get_params();
		delete params.s;
		history.replaceState(null, null, parse_params(params));
	}
	function search_prompt() {
		if (!searching) {
			var term = prompt("Enter a search term (regexp " +
			    "allowed, eg: ^ext4_)"
			    + (ignorecase ? ", ignoring case" : "")
			    + "\nPress Ctrl-i to toggle case sensitivity", "");
			if (term != null) search(term);
		} else {
			reset_search();
			searching = 0;
			currentSearchTerm = null;
			searchbtn.classList.remove("show");
			searchbtn.firstChild.nodeValue = "Search"
			matchedtxt.classList.add("hide");
			matchedtxt.firstChild.nodeValue = ""
		}
	}
	function search(term) {
		if (term) currentSearchTerm = term;
		if (currentSearchTerm === null) return;

		var re = new RegExp(currentSearchTerm, ignorecase ? 'i' : '');
		var el = document.getElementById("frames").children;
		var matches = new Object();
		var maxwidth = 0;
		for (var i = 0; i < el.length; i++) {
			var e = el[i];
			var func = g_to_func(e);
			var rect = find_child(e, "rect");
			if (func == null || rect == null)
				continue;

			// Save max width. Only works as we have a root frame
			var w = parseFloat(rect.attributes.width.value);
			if (w > maxwidth)
				maxwidth = w;

			if (func.match(re)) {
				// highlight
				var x = parseFloat(rect.attributes.x.value);
				orig_save(rect, "fill");
				rect.attributes.fill.value = "rgb(230,0,230)";

				// remember matches
				if (matches[x] == undefined) {
					matches[x] = w;
				} else {
					if (w > matches[x]) {
						// overwrite with parent
						matches[x] = w;
					}
				}
				searching = 1;
			}
		}
		if (!searching)
			return;
		var params = get_params();
		params.s = currentSearchTerm;
		history.replaceState(null, null, parse_params(params));

		searchbtn.classList.add("show");
		searchbtn.firstChild.nodeValue = "Reset Search";

		// calculate percent matched, excluding vertical overlap
		var count = 0;
		var lastx = -1;
		var lastw = 0;
		var keys = Array();
		for (k in matches) {
			if (matches.hasOwnProperty(k))
				keys.push(k);
		}
		// sort the matched frames by their x location
		// ascending, then width descending
		keys.sort(function(a, b){
			return a - b;
		});
		// Step through frames saving only the biggest bottom-up frames
		// thanks to the sort order. This relies on the tree property
		// where children are always smaller than their parents.
		var fudge = 0.0001;	// JavaScript floating point
		for (var k in keys) {
			var x = parseFloat(keys[k]);
			var w = matches[keys[k]];
			if (x >= lastx + lastw - fudge) {
				count += w;
				lastx = x;
				lastw = w;
			}
		}
		// display matched percent
		matchedtxt.classList.remove("hide");
		var pct = 100 * count / maxwidth;
		if (pct != 100) pct = pct.toFixed(1)
		matchedtxt.firstChild.nodeValue = "Matched: " + pct + "%";
	}
]]>
</script>
<rect x="0.0" y="0" width="1800.0" height="796.0" fill="url(#background)"  />
<text id="title" x="900.00" y="28" >dbfs 20260522-063429 tpcc</text>
<text id="subtitle" x="900.00" y="56" >simplified symbols, wider view</text>
<text id="details" x="10.00" y="777" > </text>
<text id="unzoom" x="10.00" y="28" class="hide">Reset Zoom</text>
<text id="search" x="1690.00" y="28" >Search</text>
<text id="ignorecase" x="1774.00" y="28" >ic</text>
<text id="matched" x="1690.00" y="777" > </text>
<g id="frames">
<g >
<title>[unknown] (20,100,500 samples, 0.03%)</title><rect x="1782.4" y="215" width="0.6" height="15.0" fill="rgb(242,180,40)" rx="2" ry="2" />
<text  x="1785.44" y="225.5" ></text>
</g>
<g >
<title>[unknown] (90,452,250 samples, 0.14%)</title><rect x="1773.0" y="375" width="2.4" height="15.0" fill="rgb(242,180,40)" rx="2" ry="2" />
<text  x="1775.98" y="385.5" ></text>
</g>
<g >
<title>operator new@plt (738,693,375 samples, 1.12%)</title><rect x="1039.6" y="487" width="19.8" height="15.0" fill="rgb(231,195,29)" rx="2" ry="2" />
<text  x="1042.59" y="497.5" ></text>
</g>
<g >
<title>File::File (35,175,875 samples, 0.05%)</title><rect x="10.4" y="583" width="1.0" height="15.0" fill="rgb(237,199,35)" rx="2" ry="2" />
<text  x="13.41" y="593.5" ></text>
</g>
<g >
<title>[unknown] (20,100,500 samples, 0.03%)</title><rect x="1784.5" y="503" width="0.5" height="15.0" fill="rgb(242,180,40)" rx="2" ry="2" />
<text  x="1787.46" y="513.5" ></text>
</g>
<g >
<title>cfree (14,733,666,500 samples, 22.25%)</title><rect x="1230.7" y="551" width="396.0" height="15.0" fill="rgb(246,123,46)" rx="2" ry="2" />
<text  x="1233.70" y="561.5" >cfree</text>
</g>
<g >
<title>matchesPredicates (2,080,401,750 samples, 3.14%)</title><rect x="1658.9" y="535" width="55.9" height="15.0" fill="rgb(238,86,36)" rx="2" ry="2" />
<text  x="1661.85" y="545.5" >matc..</text>
</g>
<g >
<title>__libc_start_main (66,226,122,375 samples, 100.00%)</title><rect x="10.0" y="695" width="1780.0" height="15.0" fill="rgb(247,154,46)" rx="2" ry="2" />
<text  x="13.00" y="705.5" >__libc_start_main</text>
</g>
<g >
<title>LoopJoinOperator::open (502,512,500 samples, 0.76%)</title><rect x="1771.5" y="583" width="13.5" height="15.0" fill="rgb(250,167,49)" rx="2" ry="2" />
<text  x="1774.50" y="593.5" ></text>
</g>
<g >
<title>operator delete@plt (2,050,251,000 samples, 3.10%)</title><rect x="1716.4" y="551" width="55.1" height="15.0" fill="rgb(231,195,29)" rx="2" ry="2" />
<text  x="1719.39" y="561.5" >oper..</text>
</g>
<g >
<title>[unknown] (100,502,500 samples, 0.15%)</title><rect x="1780.3" y="487" width="2.7" height="15.0" fill="rgb(242,180,40)" rx="2" ry="2" />
<text  x="1783.28" y="497.5" ></text>
</g>
<g >
<title>std::vector&lt;TypedRow, std::allocator&lt;TypedRow&gt; &gt;::_M_realloc_insert&lt;TypedRow const&amp;&gt; (20,100,500 samples, 0.03%)</title><rect x="1784.5" y="535" width="0.5" height="15.0" fill="rgb(240,146,38)" rx="2" ry="2" />
<text  x="1787.46" y="545.5" ></text>
</g>
<g >
<title>[unknown] (90,452,250 samples, 0.14%)</title><rect x="1773.0" y="359" width="2.4" height="15.0" fill="rgb(242,180,40)" rx="2" ry="2" />
<text  x="1775.98" y="369.5" ></text>
</g>
<g >
<title>main (66,226,122,375 samples, 100.00%)</title><rect x="10.0" y="663" width="1780.0" height="15.0" fill="rgb(247,83,46)" rx="2" ry="2" />
<text  x="13.00" y="673.5" >main</text>
</g>
<g >
<title>LoopJoinOperator::materializeSourceRows (502,512,500 samples, 0.76%)</title><rect x="1771.5" y="567" width="13.5" height="15.0" fill="rgb(234,167,32)" rx="2" ry="2" />
<text  x="1774.50" y="577.5" ></text>
</g>
<g >
<title>LoopJoinOperator::next (497,487,375 samples, 0.75%)</title><rect x="1194.1" y="535" width="13.4" height="15.0" fill="rgb(230,167,27)" rx="2" ry="2" />
<text  x="1197.10" y="545.5" ></text>
</g>
<g >
<title>std::string::_M_construct&lt;char*&gt; (24,638,187,875 samples, 37.20%)</title><rect x="450.2" y="503" width="662.2" height="15.0" fill="rgb(237,146,35)" rx="2" ry="2" />
<text  x="453.17" y="513.5" >std::string::_M_construct&lt;char*&gt;</text>
</g>
<g >
<title>BufferPool::pinPage (60,301,500 samples, 0.09%)</title><rect x="1785.7" y="519" width="1.6" height="15.0" fill="rgb(248,127,47)" rx="2" ry="2" />
<text  x="1788.68" y="529.5" ></text>
</g>
<g >
<title>[libc.so.6] (20,100,500 samples, 0.03%)</title><rect x="1779.7" y="503" width="0.6" height="15.0" fill="rgb(231,147,29)" rx="2" ry="2" />
<text  x="1782.74" y="513.5" ></text>
</g>
<g >
<title>std::vector copy (3,040,200,625 samples, 4.59%)</title><rect x="1112.4" y="503" width="81.7" height="15.0" fill="rgb(248,146,48)" rx="2" ry="2" />
<text  x="1115.39" y="513.5" >std::ve..</text>
</g>
<g >
<title>HeapFetchOperator::next (20,100,500 samples, 0.03%)</title><rect x="1785.1" y="567" width="0.6" height="15.0" fill="rgb(230,200,27)" rx="2" ry="2" />
<text  x="1788.14" y="577.5" ></text>
</g>
<g >
<title>RecordCellView::getTypedRow (60,301,500 samples, 0.09%)</title><rect x="1777.3" y="535" width="1.6" height="15.0" fill="rgb(231,194,28)" rx="2" ry="2" />
<text  x="1780.30" y="545.5" ></text>
</g>
<g >
<title>[libc.so.6] (30,150,750 samples, 0.05%)</title><rect x="1783.4" y="487" width="0.8" height="15.0" fill="rgb(231,147,29)" rx="2" ry="2" />
<text  x="1786.38" y="497.5" ></text>
</g>
<g >
<title>OrderByOperator::next (90,452,250 samples, 0.14%)</title><rect x="1785.7" y="583" width="2.4" height="15.0" fill="rgb(230,124,27)" rx="2" ry="2" />
<text  x="1788.68" y="593.5" ></text>
</g>
<g >
<title>SeqScanOperator::next (271,356,750 samples, 0.41%)</title><rect x="1771.6" y="551" width="7.3" height="15.0" fill="rgb(230,179,27)" rx="2" ry="2" />
<text  x="1774.63" y="561.5" ></text>
</g>
<g >
<title>File::readPageIntoBuffer (20,100,500 samples, 0.03%)</title><rect x="1786.2" y="503" width="0.6" height="15.0" fill="rgb(241,199,40)" rx="2" ry="2" />
<text  x="1789.22" y="513.5" ></text>
</g>
<g >
<title>FilterOperator::next (65,452,253,125 samples, 98.83%)</title><rect x="12.3" y="567" width="1759.2" height="15.0" fill="rgb(230,199,27)" rx="2" ry="2" />
<text  x="15.30" y="577.5" >FilterOperator::next</text>
</g>
<g >
<title>std::string::_M_construct&lt;char*&gt; (20,100,500 samples, 0.03%)</title><rect x="1776.4" y="519" width="0.5" height="15.0" fill="rgb(237,146,35)" rx="2" ry="2" />
<text  x="1779.36" y="529.5" ></text>
</g>
<g >
<title>[unknown] (20,100,500 samples, 0.03%)</title><rect x="1784.5" y="487" width="0.5" height="15.0" fill="rgb(242,180,40)" rx="2" ry="2" />
<text  x="1787.46" y="497.5" ></text>
</g>
<g >
<title>OrderByOperator::materializeAndSort (90,452,250 samples, 0.14%)</title><rect x="1785.7" y="567" width="2.4" height="15.0" fill="rgb(238,124,36)" rx="2" ry="2" />
<text  x="1788.68" y="577.5" ></text>
</g>
<g >
<title>[unknown] (100,502,500 samples, 0.15%)</title><rect x="1780.3" y="503" width="2.7" height="15.0" fill="rgb(242,180,40)" rx="2" ry="2" />
<text  x="1783.28" y="513.5" ></text>
</g>
<g >
<title>FrameDirectory::findVictimFrame (30,150,750 samples, 0.05%)</title><rect x="1771.6" y="487" width="0.8" height="15.0" fill="rgb(241,206,40)" rx="2" ry="2" />
<text  x="1774.63" y="497.5" ></text>
</g>
<g >
<title>Table::Table (45,226,125 samples, 0.07%)</title><rect x="10.4" y="599" width="1.2" height="15.0" fill="rgb(241,146,40)" rx="2" ry="2" />
<text  x="13.41" y="609.5" ></text>
</g>
<g >
<title>FilterOperator::next (20,100,500 samples, 0.03%)</title><rect x="1785.1" y="583" width="0.6" height="15.0" fill="rgb(230,199,27)" rx="2" ry="2" />
<text  x="1788.14" y="593.5" ></text>
</g>
<g >
<title>read (95,477,375 samples, 0.14%)</title><rect x="1772.8" y="423" width="2.6" height="15.0" fill="rgb(241,184,40)" rx="2" ry="2" />
<text  x="1775.85" y="433.5" ></text>
</g>
<g >
<title>operator new (15,809,043,250 samples, 23.87%)</title><rect x="614.7" y="487" width="424.9" height="15.0" fill="rgb(235,195,33)" rx="2" ry="2" />
<text  x="617.68" y="497.5" >operator new</text>
</g>
<g >
<title>std::string::_M_create@plt (804,020,000 samples, 1.21%)</title><rect x="1090.8" y="487" width="21.6" height="15.0" fill="rgb(231,146,29)" rx="2" ry="2" />
<text  x="1093.78" y="497.5" ></text>
</g>
<g >
<title>malloc (13,804,018,375 samples, 20.84%)</title><rect x="636.3" y="471" width="371.0" height="15.0" fill="rgb(238,112,36)" rx="2" ry="2" />
<text  x="639.29" y="481.5" >malloc</text>
</g>
<g >
<title>std::basic_filebuf&lt;char, std::char_traits&lt;char&gt; &gt;::underflow (20,100,500 samples, 0.03%)</title><rect x="1786.2" y="439" width="0.6" height="15.0" fill="rgb(238,146,36)" rx="2" ry="2" />
<text  x="1789.22" y="449.5" ></text>
</g>
<g >
<title>executor::update (20,100,500 samples, 0.03%)</title><rect x="1789.1" y="615" width="0.5" height="15.0" fill="rgb(245,155,45)" rx="2" ry="2" />
<text  x="1792.05" y="625.5" ></text>
</g>
<g >
<title>[unknown] (20,100,500 samples, 0.03%)</title><rect x="1782.4" y="247" width="0.6" height="15.0" fill="rgb(242,180,40)" rx="2" ry="2" />
<text  x="1785.44" y="257.5" ></text>
</g>
<g >
<title>std::istream::read (20,100,500 samples, 0.03%)</title><rect x="1786.2" y="487" width="0.6" height="15.0" fill="rgb(241,146,40)" rx="2" ry="2" />
<text  x="1789.22" y="497.5" ></text>
</g>
<g >
<title>[unknown] (90,452,250 samples, 0.14%)</title><rect x="1773.0" y="407" width="2.4" height="15.0" fill="rgb(242,180,40)" rx="2" ry="2" />
<text  x="1775.98" y="417.5" ></text>
</g>
<g >
<title>std::vector copy (50,251,250 samples, 0.08%)</title><rect x="1783.0" y="551" width="1.3" height="15.0" fill="rgb(248,146,48)" rx="2" ry="2" />
<text  x="1785.98" y="561.5" ></text>
</g>
<g >
<title>[unknown] (25,125,625 samples, 0.04%)</title><rect x="1774.7" y="103" width="0.7" height="15.0" fill="rgb(242,180,40)" rx="2" ry="2" />
<text  x="1777.74" y="113.5" ></text>
</g>
<g >
<title>resolveBoundOperand (55,276,375 samples, 0.08%)</title><rect x="1714.8" y="535" width="1.5" height="15.0" fill="rgb(254,165,54)" rx="2" ry="2" />
<text  x="1717.77" y="545.5" ></text>
</g>
<g >
<title>[libc.so.6] (3,748,743,250 samples, 5.66%)</title><rect x="340.5" y="471" width="100.8" height="15.0" fill="rgb(231,147,29)" rx="2" ry="2" />
<text  x="343.50" y="481.5" >[libc.so.6]</text>
</g>
<g >
<title>[unknown] (20,100,500 samples, 0.03%)</title><rect x="1784.5" y="391" width="0.5" height="15.0" fill="rgb(242,180,40)" rx="2" ry="2" />
<text  x="1787.46" y="401.5" ></text>
</g>
<g >
<title>[unknown] (90,452,250 samples, 0.14%)</title><rect x="1773.0" y="343" width="2.4" height="15.0" fill="rgb(242,180,40)" rx="2" ry="2" />
<text  x="1775.98" y="353.5" ></text>
</g>
<g >
<title>operator new (45,226,125 samples, 0.07%)</title><rect x="1783.0" y="519" width="1.2" height="15.0" fill="rgb(235,195,33)" rx="2" ry="2" />
<text  x="1785.98" y="529.5" ></text>
</g>
<g >
<title>malloc@plt (1,201,004,875 samples, 1.81%)</title><rect x="1007.3" y="471" width="32.3" height="15.0" fill="rgb(231,112,29)" rx="2" ry="2" />
<text  x="1010.31" y="481.5" >m..</text>
</g>
<g >
<title>[libc.so.6] (85,427,125 samples, 0.13%)</title><rect x="236.8" y="519" width="2.3" height="15.0" fill="rgb(231,147,29)" rx="2" ry="2" />
<text  x="239.77" y="529.5" ></text>
</g>
<g >
<title>[libc.so.6] (703,517,500 samples, 1.06%)</title><rect x="247.7" y="503" width="18.9" height="15.0" fill="rgb(231,147,29)" rx="2" ry="2" />
<text  x="250.71" y="513.5" ></text>
</g>
<g >
<title>LoopJoinOperator::buildJoinedRow (497,487,375 samples, 0.75%)</title><rect x="1194.1" y="519" width="13.4" height="15.0" fill="rgb(231,167,28)" rx="2" ry="2" />
<text  x="1197.10" y="529.5" ></text>
</g>
<g >
<title>[unknown] (90,452,250 samples, 0.14%)</title><rect x="1773.0" y="135" width="2.4" height="15.0" fill="rgb(242,180,40)" rx="2" ry="2" />
<text  x="1775.98" y="145.5" ></text>
</g>
<g >
<title>[unknown] (70,351,750 samples, 0.11%)</title><rect x="1781.1" y="295" width="1.9" height="15.0" fill="rgb(242,180,40)" rx="2" ry="2" />
<text  x="1784.09" y="305.5" ></text>
</g>
<g >
<title>std::basic_streambuf&lt;char, std::char_traits&lt;char&gt; &gt;::xsgetn (20,100,500 samples, 0.03%)</title><rect x="1786.2" y="455" width="0.6" height="15.0" fill="rgb(244,146,43)" rx="2" ry="2" />
<text  x="1789.22" y="465.5" ></text>
</g>
<g >
<title>Server::start (66,226,122,375 samples, 100.00%)</title><rect x="10.0" y="647" width="1780.0" height="15.0" fill="rgb(239,176,37)" rx="2" ry="2" />
<text  x="13.00" y="657.5" >Server::start</text>
</g>
<g >
<title>[unknown] (90,452,250 samples, 0.14%)</title><rect x="1773.0" y="151" width="2.4" height="15.0" fill="rgb(242,180,40)" rx="2" ry="2" />
<text  x="1775.98" y="161.5" ></text>
</g>
<g >
<title>[unknown] (20,100,500 samples, 0.03%)</title><rect x="1784.5" y="519" width="0.5" height="15.0" fill="rgb(242,180,40)" rx="2" ry="2" />
<text  x="1787.46" y="529.5" ></text>
</g>
<g >
<title>[unknown] (70,351,750 samples, 0.11%)</title><rect x="1781.1" y="311" width="1.9" height="15.0" fill="rgb(242,180,40)" rx="2" ry="2" />
<text  x="1784.09" y="321.5" ></text>
</g>
<g >
<title>LoopJoinOperator::buildJoinedRow (41,366,829,000 samples, 62.46%)</title><rect x="82.3" y="535" width="1111.8" height="15.0" fill="rgb(231,167,28)" rx="2" ry="2" />
<text  x="85.26" y="545.5" >LoopJoinOperator::buildJoinedRow</text>
</g>
<g >
<title>[unknown] (80,402,000 samples, 0.12%)</title><rect x="1780.8" y="391" width="2.2" height="15.0" fill="rgb(242,180,40)" rx="2" ry="2" />
<text  x="1783.82" y="401.5" ></text>
</g>
<g >
<title>[libc.so.6] (9,718,591,750 samples, 14.67%)</title><rect x="1365.4" y="535" width="261.2" height="15.0" fill="rgb(231,147,29)" rx="2" ry="2" />
<text  x="1368.36" y="545.5" >[libc.so.6]</text>
</g>
<g >
<title>[unknown] (90,452,250 samples, 0.14%)</title><rect x="1773.0" y="231" width="2.4" height="15.0" fill="rgb(242,180,40)" rx="2" ry="2" />
<text  x="1775.98" y="241.5" ></text>
</g>
<g >
<title>matchesPredicates (150,753,750 samples, 0.23%)</title><rect x="66.5" y="535" width="4.0" height="15.0" fill="rgb(238,86,36)" rx="2" ry="2" />
<text  x="69.46" y="545.5" ></text>
</g>
<g >
<title>std::basic_filebuf&lt;char, std::char_traits&lt;char&gt; &gt;::underflow (95,477,375 samples, 0.14%)</title><rect x="1772.8" y="455" width="2.6" height="15.0" fill="rgb(238,146,36)" rx="2" ry="2" />
<text  x="1775.85" y="465.5" ></text>
</g>
<g >
<title>[libc.so.6] (864,321,500 samples, 1.31%)</title><rect x="1207.5" y="551" width="23.2" height="15.0" fill="rgb(231,147,29)" rx="2" ry="2" />
<text  x="1210.47" y="561.5" ></text>
</g>
<g >
<title>BufferPool::evictOnePage (30,150,750 samples, 0.05%)</title><rect x="1771.6" y="503" width="0.8" height="15.0" fill="rgb(248,127,47)" rx="2" ry="2" />
<text  x="1774.63" y="513.5" ></text>
</g>
<g >
<title>[libc.so.6] (793,969,750 samples, 1.20%)</title><rect x="986.0" y="439" width="21.3" height="15.0" fill="rgb(231,147,29)" rx="2" ry="2" />
<text  x="988.97" y="449.5" ></text>
</g>
<g >
<title>operator new (130,653,250 samples, 0.20%)</title><rect x="1779.5" y="551" width="3.5" height="15.0" fill="rgb(235,195,33)" rx="2" ry="2" />
<text  x="1782.47" y="561.5" ></text>
</g>
<g >
<title>std::string::_M_construct&lt;char*&gt; (50,251,250 samples, 0.08%)</title><rect x="1783.0" y="535" width="1.3" height="15.0" fill="rgb(237,146,35)" rx="2" ry="2" />
<text  x="1785.98" y="545.5" ></text>
</g>
<g >
<title>[unknown] (20,100,500 samples, 0.03%)</title><rect x="1774.9" y="87" width="0.5" height="15.0" fill="rgb(242,180,40)" rx="2" ry="2" />
<text  x="1777.87" y="97.5" ></text>
</g>
<g >
<title>[unknown] (90,452,250 samples, 0.14%)</title><rect x="1773.0" y="327" width="2.4" height="15.0" fill="rgb(242,180,40)" rx="2" ry="2" />
<text  x="1775.98" y="337.5" ></text>
</g>
<g >
<title>LoopJoinOperator::next (42,301,502,250 samples, 63.87%)</title><rect x="70.5" y="551" width="1137.0" height="15.0" fill="rgb(230,167,27)" rx="2" ry="2" />
<text  x="73.51" y="561.5" >LoopJoinOperator::next</text>
</g>
<g >
<title>[libc.so.6] (4,969,848,625 samples, 7.50%)</title><rect x="307.7" y="487" width="133.6" height="15.0" fill="rgb(231,147,29)" rx="2" ry="2" />
<text  x="310.68" y="497.5" >[libc.so.6]</text>
</g>
<g >
<title>read (20,100,500 samples, 0.03%)</title><rect x="1786.2" y="407" width="0.6" height="15.0" fill="rgb(241,184,40)" rx="2" ry="2" />
<text  x="1789.22" y="417.5" ></text>
</g>
<g >
<title>[unknown] (70,351,750 samples, 0.11%)</title><rect x="1781.1" y="279" width="1.9" height="15.0" fill="rgb(242,180,40)" rx="2" ry="2" />
<text  x="1784.09" y="289.5" ></text>
</g>
<g >
<title>[unknown] (20,100,500 samples, 0.03%)</title><rect x="1783.7" y="391" width="0.5" height="15.0" fill="rgb(242,180,40)" rx="2" ry="2" />
<text  x="1786.65" y="401.5" ></text>
</g>
<g >
<title>std::basic_filebuf&lt;char, std::char_traits&lt;char&gt; &gt;::xsgetn (20,100,500 samples, 0.03%)</title><rect x="1786.2" y="471" width="0.6" height="15.0" fill="rgb(244,146,43)" rx="2" ry="2" />
<text  x="1789.22" y="481.5" ></text>
</g>
<g >
<title>[unknown] (25,125,625 samples, 0.04%)</title><rect x="1774.7" y="119" width="0.7" height="15.0" fill="rgb(242,180,40)" rx="2" ry="2" />
<text  x="1777.74" y="129.5" ></text>
</g>
<g >
<title>[unknown] (20,100,500 samples, 0.03%)</title><rect x="1783.7" y="311" width="0.5" height="15.0" fill="rgb(242,180,40)" rx="2" ry="2" />
<text  x="1786.65" y="321.5" ></text>
</g>
<g >
<title>ProjectionOperator::next (110,552,750 samples, 0.17%)</title><rect x="1785.1" y="599" width="3.0" height="15.0" fill="rgb(230,200,27)" rx="2" ry="2" />
<text  x="1788.14" y="609.5" ></text>
</g>
<g >
<title>BufferPool::acquireFrame (30,150,750 samples, 0.05%)</title><rect x="1771.6" y="519" width="0.8" height="15.0" fill="rgb(241,127,40)" rx="2" ry="2" />
<text  x="1774.63" y="529.5" ></text>
</g>
<g >
<title>resolveBoundOperand (1,185,929,500 samples, 1.79%)</title><rect x="1682.9" y="519" width="31.9" height="15.0" fill="rgb(254,165,54)" rx="2" ry="2" />
<text  x="1685.89" y="529.5" >r..</text>
</g>
<g >
<title>[unknown] (40,201,000 samples, 0.06%)</title><rect x="1781.9" y="263" width="1.1" height="15.0" fill="rgb(242,180,40)" rx="2" ry="2" />
<text  x="1784.90" y="273.5" ></text>
</g>
<g >
<title>AggregateOperator::open (65,954,765,625 samples, 99.59%)</title><rect x="12.3" y="599" width="1772.7" height="15.0" fill="rgb(250,147,49)" rx="2" ry="2" />
<text  x="15.30" y="609.5" >AggregateOperator::open</text>
</g>
<g >
<title>[unknown] (20,100,500 samples, 0.03%)</title><rect x="1783.7" y="455" width="0.5" height="15.0" fill="rgb(242,180,40)" rx="2" ry="2" />
<text  x="1786.65" y="465.5" ></text>
</g>
<g >
<title>[unknown] (20,100,500 samples, 0.03%)</title><rect x="1784.5" y="375" width="0.5" height="15.0" fill="rgb(242,180,40)" rx="2" ry="2" />
<text  x="1787.46" y="385.5" ></text>
</g>
<g >
<title>LoopJoinOperator::advanceSourceRowCursors (266,331,625 samples, 0.40%)</title><rect x="75.1" y="535" width="7.2" height="15.0" fill="rgb(239,167,38)" rx="2" ry="2" />
<text  x="78.10" y="545.5" ></text>
</g>
<g >
<title>operator new@plt (175,879,375 samples, 0.27%)</title><rect x="444.1" y="519" width="4.7" height="15.0" fill="rgb(231,195,29)" rx="2" ry="2" />
<text  x="447.09" y="529.5" ></text>
</g>
<g >
<title>[unknown] (80,402,000 samples, 0.12%)</title><rect x="1780.8" y="359" width="2.2" height="15.0" fill="rgb(242,180,40)" rx="2" ry="2" />
<text  x="1783.82" y="369.5" ></text>
</g>
<g >
<title>[unknown] (20,100,500 samples, 0.03%)</title><rect x="1784.5" y="471" width="0.5" height="15.0" fill="rgb(242,180,40)" rx="2" ry="2" />
<text  x="1787.46" y="481.5" ></text>
</g>
<g >
<title>[unknown] (90,452,250 samples, 0.14%)</title><rect x="1773.0" y="199" width="2.4" height="15.0" fill="rgb(242,180,40)" rx="2" ry="2" />
<text  x="1775.98" y="209.5" ></text>
</g>
<g >
<title>operator delete@plt (231,155,750 samples, 0.35%)</title><rect x="271.1" y="519" width="6.2" height="15.0" fill="rgb(231,195,29)" rx="2" ry="2" />
<text  x="274.08" y="529.5" ></text>
</g>
<g >
<title>[libc.so.6] (1,618,090,250 samples, 2.44%)</title><rect x="397.8" y="455" width="43.5" height="15.0" fill="rgb(231,147,29)" rx="2" ry="2" />
<text  x="400.77" y="465.5" >[li..</text>
</g>
<g >
<title>std::basic_filebuf&lt;char, std::char_traits&lt;char&gt; &gt;::xsgetn (100,502,500 samples, 0.15%)</title><rect x="1772.7" y="487" width="2.7" height="15.0" fill="rgb(244,146,43)" rx="2" ry="2" />
<text  x="1775.71" y="497.5" ></text>
</g>
<g >
<title>[unknown] (20,100,500 samples, 0.03%)</title><rect x="1783.7" y="359" width="0.5" height="15.0" fill="rgb(242,180,40)" rx="2" ry="2" />
<text  x="1786.65" y="369.5" ></text>
</g>
<g >
<title>[unknown] (20,100,500 samples, 0.03%)</title><rect x="1784.5" y="439" width="0.5" height="15.0" fill="rgb(242,180,40)" rx="2" ry="2" />
<text  x="1787.46" y="449.5" ></text>
</g>
<g >
<title>SeqScanOperator::next (90,452,250 samples, 0.14%)</title><rect x="1785.7" y="535" width="2.4" height="15.0" fill="rgb(230,179,27)" rx="2" ry="2" />
<text  x="1788.68" y="545.5" ></text>
</g>
<g >
<title>std::string::_M_create (1,165,829,000 samples, 1.76%)</title><rect x="1059.4" y="487" width="31.4" height="15.0" fill="rgb(245,146,45)" rx="2" ry="2" />
<text  x="1062.44" y="497.5" >s..</text>
</g>
<g >
<title>FilterOperator::next (2,165,828,875 samples, 3.27%)</title><rect x="12.3" y="551" width="58.2" height="15.0" fill="rgb(230,199,27)" rx="2" ry="2" />
<text  x="15.30" y="561.5" >Filte..</text>
</g>
<g >
<title>matchesPredicates (2,135,678,125 samples, 3.22%)</title><rect x="1658.9" y="551" width="57.4" height="15.0" fill="rgb(238,86,36)" rx="2" ry="2" />
<text  x="1661.85" y="561.5" >matc..</text>
</g>
<g >
<title>[unknown] (85,427,125 samples, 0.13%)</title><rect x="1780.7" y="455" width="2.3" height="15.0" fill="rgb(242,180,40)" rx="2" ry="2" />
<text  x="1783.68" y="465.5" ></text>
</g>
<g >
<title>LoopJoinOperator::buildJoinedRow (5,748,743,000 samples, 8.68%)</title><rect x="82.3" y="519" width="154.5" height="15.0" fill="rgb(231,167,28)" rx="2" ry="2" />
<text  x="85.26" y="529.5" >LoopJoinOperator..</text>
</g>
<g >
<title>[unknown] (20,100,500 samples, 0.03%)</title><rect x="1783.7" y="439" width="0.5" height="15.0" fill="rgb(242,180,40)" rx="2" ry="2" />
<text  x="1786.65" y="449.5" ></text>
</g>
<g >
<title>executor::read (66,105,519,375 samples, 99.82%)</title><rect x="12.3" y="615" width="1776.8" height="15.0" fill="rgb(241,155,40)" rx="2" ry="2" />
<text  x="15.30" y="625.5" >executor::read</text>
</g>
<g >
<title>std::istream::read (100,502,500 samples, 0.15%)</title><rect x="1772.7" y="503" width="2.7" height="15.0" fill="rgb(241,146,40)" rx="2" ry="2" />
<text  x="1775.71" y="513.5" ></text>
</g>
<g >
<title>[unknown] (100,502,500 samples, 0.15%)</title><rect x="1780.3" y="471" width="2.7" height="15.0" fill="rgb(242,180,40)" rx="2" ry="2" />
<text  x="1783.28" y="481.5" ></text>
</g>
<g >
<title>[unknown] (90,452,250 samples, 0.14%)</title><rect x="1773.0" y="215" width="2.4" height="15.0" fill="rgb(242,180,40)" rx="2" ry="2" />
<text  x="1775.98" y="225.5" ></text>
</g>
<g >
<title>[unknown] (80,402,000 samples, 0.12%)</title><rect x="1780.8" y="375" width="2.2" height="15.0" fill="rgb(242,180,40)" rx="2" ry="2" />
<text  x="1783.82" y="385.5" ></text>
</g>
<g >
<title>malloc@plt (105,527,625 samples, 0.16%)</title><rect x="441.3" y="503" width="2.8" height="15.0" fill="rgb(231,112,29)" rx="2" ry="2" />
<text  x="444.26" y="513.5" ></text>
</g>
<g >
<title>AggregateOperator::computeAggregate (65,452,253,125 samples, 98.83%)</title><rect x="12.3" y="583" width="1759.2" height="15.0" fill="rgb(245,147,45)" rx="2" ry="2" />
<text  x="15.30" y="593.5" >AggregateOperator::computeAggregate</text>
</g>
<g >
<title>malloc (125,628,125 samples, 0.19%)</title><rect x="1779.6" y="535" width="3.4" height="15.0" fill="rgb(238,112,36)" rx="2" ry="2" />
<text  x="1782.60" y="545.5" ></text>
</g>
<g >
<title>BufferPool::pinPage (195,979,875 samples, 0.30%)</title><rect x="1771.6" y="535" width="5.3" height="15.0" fill="rgb(248,127,47)" rx="2" ry="2" />
<text  x="1774.63" y="545.5" ></text>
</g>
<g >
<title>free@plt (1,195,979,750 samples, 1.81%)</title><rect x="1626.7" y="551" width="32.2" height="15.0" fill="rgb(231,177,29)" rx="2" ry="2" />
<text  x="1629.71" y="561.5" >f..</text>
</g>
<g >
<title>std::vector&lt;TypedRow, std::allocator&lt;TypedRow&gt; &gt;::_M_realloc_insert&lt;TypedRow const&amp;&gt; (25,125,625 samples, 0.04%)</title><rect x="1784.3" y="551" width="0.7" height="15.0" fill="rgb(240,146,38)" rx="2" ry="2" />
<text  x="1787.33" y="561.5" ></text>
</g>
<g >
<title>FilterOperator::next (90,452,250 samples, 0.14%)</title><rect x="1785.7" y="551" width="2.4" height="15.0" fill="rgb(230,199,27)" rx="2" ry="2" />
<text  x="1788.68" y="561.5" ></text>
</g>
<g >
<title>[unknown] (20,100,500 samples, 0.03%)</title><rect x="1783.7" y="375" width="0.5" height="15.0" fill="rgb(242,180,40)" rx="2" ry="2" />
<text  x="1786.65" y="385.5" ></text>
</g>
<g >
<title>[unknown] (20,100,500 samples, 0.03%)</title><rect x="1784.5" y="455" width="0.5" height="15.0" fill="rgb(242,180,40)" rx="2" ry="2" />
<text  x="1787.46" y="465.5" ></text>
</g>
<g >
<title>Table::getTable (50,251,250 samples, 0.08%)</title><rect x="10.4" y="615" width="1.4" height="15.0" fill="rgb(241,146,40)" rx="2" ry="2" />
<text  x="13.41" y="625.5" ></text>
</g>
<g >
<title>[unknown] (20,100,500 samples, 0.03%)</title><rect x="1783.7" y="471" width="0.5" height="15.0" fill="rgb(242,180,40)" rx="2" ry="2" />
<text  x="1786.65" y="481.5" ></text>
</g>
<g >
<title>[unknown] (85,427,125 samples, 0.13%)</title><rect x="1780.7" y="439" width="2.3" height="15.0" fill="rgb(242,180,40)" rx="2" ry="2" />
<text  x="1783.68" y="449.5" ></text>
</g>
<g >
<title>FrameDirectory::findVictimFrame (25,125,625 samples, 0.04%)</title><rect x="1771.6" y="471" width="0.7" height="15.0" fill="rgb(241,206,40)" rx="2" ry="2" />
<text  x="1774.63" y="481.5" ></text>
</g>
<g >
<title>std::__basic_file&lt;char&gt;::xsgetn (20,100,500 samples, 0.03%)</title><rect x="1786.2" y="423" width="0.6" height="15.0" fill="rgb(244,146,43)" rx="2" ry="2" />
<text  x="1789.22" y="433.5" ></text>
</g>
<g >
<title>[unknown] (20,100,500 samples, 0.03%)</title><rect x="1784.5" y="407" width="0.5" height="15.0" fill="rgb(242,180,40)" rx="2" ry="2" />
<text  x="1787.46" y="417.5" ></text>
</g>
<g >
<title>[unknown] (20,100,500 samples, 0.03%)</title><rect x="1783.7" y="327" width="0.5" height="15.0" fill="rgb(242,180,40)" rx="2" ry="2" />
<text  x="1786.65" y="337.5" ></text>
</g>
<g >
<title>[unknown] (90,452,250 samples, 0.14%)</title><rect x="1773.0" y="391" width="2.4" height="15.0" fill="rgb(242,180,40)" rx="2" ry="2" />
<text  x="1775.98" y="401.5" ></text>
</g>
<g >
<title>[unknown] (20,100,500 samples, 0.03%)</title><rect x="1782.4" y="231" width="0.6" height="15.0" fill="rgb(242,180,40)" rx="2" ry="2" />
<text  x="1785.44" y="241.5" ></text>
</g>
<g >
<title>malloc (45,226,125 samples, 0.07%)</title><rect x="1783.0" y="503" width="1.2" height="15.0" fill="rgb(238,112,36)" rx="2" ry="2" />
<text  x="1785.98" y="513.5" ></text>
</g>
<g >
<title>RecordCellView::getTypedRow (30,150,750 samples, 0.05%)</title><rect x="1777.3" y="519" width="0.8" height="15.0" fill="rgb(231,194,28)" rx="2" ry="2" />
<text  x="1780.30" y="529.5" ></text>
</g>
<g >
<title>memcpy@plt (869,346,625 samples, 1.31%)</title><rect x="591.3" y="487" width="23.4" height="15.0" fill="rgb(231,144,29)" rx="2" ry="2" />
<text  x="594.31" y="497.5" ></text>
</g>
<g >
<title>[unknown] (20,100,500 samples, 0.03%)</title><rect x="1783.7" y="423" width="0.5" height="15.0" fill="rgb(242,180,40)" rx="2" ry="2" />
<text  x="1786.65" y="433.5" ></text>
</g>
<g >
<title>[unknown] (90,452,250 samples, 0.14%)</title><rect x="1773.0" y="311" width="2.4" height="15.0" fill="rgb(242,180,40)" rx="2" ry="2" />
<text  x="1775.98" y="321.5" ></text>
</g>
<g >
<title>dbfs_server (66,226,122,375 samples, 100.00%)</title><rect x="10.0" y="727" width="1780.0" height="15.0" fill="rgb(238,160,37)" rx="2" ry="2" />
<text  x="13.00" y="737.5" >dbfs_server</text>
</g>
<g >
<title>[unknown] (85,427,125 samples, 0.13%)</title><rect x="1780.7" y="423" width="2.3" height="15.0" fill="rgb(242,180,40)" rx="2" ry="2" />
<text  x="1783.68" y="433.5" ></text>
</g>
<g >
<title>[unknown] (90,452,250 samples, 0.14%)</title><rect x="1773.0" y="263" width="2.4" height="15.0" fill="rgb(242,180,40)" rx="2" ry="2" />
<text  x="1775.98" y="273.5" ></text>
</g>
<g >
<title>malloc (5,994,974,125 samples, 9.05%)</title><rect x="280.1" y="503" width="161.2" height="15.0" fill="rgb(238,112,36)" rx="2" ry="2" />
<text  x="283.13" y="513.5" >malloc</text>
</g>
<g >
<title>[libc.so.6] (125,628,125 samples, 0.19%)</title><rect x="1779.6" y="519" width="3.4" height="15.0" fill="rgb(231,147,29)" rx="2" ry="2" />
<text  x="1782.60" y="529.5" ></text>
</g>
<g >
<title>[unknown] (90,452,250 samples, 0.14%)</title><rect x="1773.0" y="279" width="2.4" height="15.0" fill="rgb(242,180,40)" rx="2" ry="2" />
<text  x="1775.98" y="289.5" ></text>
</g>
<g >
<title>operator new (20,100,500 samples, 0.03%)</title><rect x="1778.2" y="519" width="0.6" height="15.0" fill="rgb(235,195,33)" rx="2" ry="2" />
<text  x="1781.25" y="529.5" ></text>
</g>
<g >
<title>[libc.so.6] (6,517,587,125 samples, 9.84%)</title><rect x="832.1" y="455" width="175.2" height="15.0" fill="rgb(231,147,29)" rx="2" ry="2" />
<text  x="835.13" y="465.5" >[libc.so.6]</text>
</g>
<g >
<title>[unknown] (70,351,750 samples, 0.11%)</title><rect x="1781.1" y="327" width="1.9" height="15.0" fill="rgb(242,180,40)" rx="2" ry="2" />
<text  x="1784.09" y="337.5" ></text>
</g>
<g >
<title>[unknown] (90,452,250 samples, 0.14%)</title><rect x="1773.0" y="167" width="2.4" height="15.0" fill="rgb(242,180,40)" rx="2" ry="2" />
<text  x="1775.98" y="177.5" ></text>
</g>
<g >
<title>std::vector copy (27,728,639,750 samples, 41.87%)</title><rect x="448.8" y="519" width="745.3" height="15.0" fill="rgb(248,146,48)" rx="2" ry="2" />
<text  x="451.82" y="529.5" >std::vector copy</text>
</g>
<g >
<title>std::vector copy (1,929,648,000 samples, 2.91%)</title><rect x="184.9" y="503" width="51.9" height="15.0" fill="rgb(248,146,48)" rx="2" ry="2" />
<text  x="187.91" y="513.5" >std:..</text>
</g>
<g >
<title>_start (66,226,122,375 samples, 100.00%)</title><rect x="10.0" y="711" width="1780.0" height="15.0" fill="rgb(239,139,37)" rx="2" ry="2" />
<text  x="13.00" y="721.5" >_start</text>
</g>
<g >
<title>all (66,226,122,375 samples, 100%)</title><rect x="10.0" y="743" width="1780.0" height="15.0" fill="rgb(255,230,55)" rx="2" ry="2" />
<text  x="13.00" y="753.5" ></text>
</g>
<g >
<title>[unknown] (20,100,500 samples, 0.03%)</title><rect x="1783.7" y="343" width="0.5" height="15.0" fill="rgb(242,180,40)" rx="2" ry="2" />
<text  x="1786.65" y="353.5" ></text>
</g>
<g >
<title>std::basic_streambuf&lt;char, std::char_traits&lt;char&gt; &gt;::xsgetn (100,502,500 samples, 0.15%)</title><rect x="1772.7" y="471" width="2.7" height="15.0" fill="rgb(244,146,43)" rx="2" ry="2" />
<text  x="1775.71" y="481.5" ></text>
</g>
<g >
<title>[libc.so.6] (2,346,733,375 samples, 3.54%)</title><rect x="528.1" y="487" width="63.1" height="15.0" fill="rgb(231,147,29)" rx="2" ry="2" />
<text  x="531.10" y="497.5" >[libc..</text>
</g>
<g >
<title>File::initializeStreamIfClosed (20,100,500 samples, 0.03%)</title><rect x="10.4" y="567" width="0.5" height="15.0" fill="rgb(247,199,47)" rx="2" ry="2" />
<text  x="13.41" y="577.5" ></text>
</g>
<g >
<title>File::readPageIntoBuffer (100,502,500 samples, 0.15%)</title><rect x="1772.7" y="519" width="2.7" height="15.0" fill="rgb(241,199,40)" rx="2" ry="2" />
<text  x="1775.71" y="529.5" ></text>
</g>
<g >
<title>std::__basic_file&lt;char&gt;::xsgetn (95,477,375 samples, 0.14%)</title><rect x="1772.8" y="439" width="2.6" height="15.0" fill="rgb(244,146,43)" rx="2" ry="2" />
<text  x="1775.85" y="449.5" ></text>
</g>
<g >
<title>[unknown] (90,452,250 samples, 0.14%)</title><rect x="1773.0" y="247" width="2.4" height="15.0" fill="rgb(242,180,40)" rx="2" ry="2" />
<text  x="1775.98" y="257.5" ></text>
</g>
<g >
<title>[unknown] (85,427,125 samples, 0.13%)</title><rect x="1780.7" y="407" width="2.3" height="15.0" fill="rgb(242,180,40)" rx="2" ry="2" />
<text  x="1783.68" y="417.5" ></text>
</g>
<g >
<title>[unknown] (20,100,500 samples, 0.03%)</title><rect x="1783.7" y="407" width="0.5" height="15.0" fill="rgb(242,180,40)" rx="2" ry="2" />
<text  x="1786.65" y="417.5" ></text>
</g>
<g >
<title>Server::handleRequest (66,216,072,125 samples, 99.98%)</title><rect x="10.0" y="631" width="1779.7" height="15.0" fill="rgb(235,176,33)" rx="2" ry="2" />
<text  x="13.00" y="641.5" >Server::handleRequest</text>
</g>
<g >
<title>operator new (6,206,029,375 samples, 9.37%)</title><rect x="277.3" y="519" width="166.8" height="15.0" fill="rgb(235,195,33)" rx="2" ry="2" />
<text  x="280.29" y="529.5" >operator new</text>
</g>
<g >
<title>free@plt (155,778,875 samples, 0.24%)</title><rect x="266.8" y="519" width="4.1" height="15.0" fill="rgb(231,177,29)" rx="2" ry="2" />
<text  x="269.76" y="529.5" ></text>
</g>
<g >
<title>[unknown] (90,452,250 samples, 0.14%)</title><rect x="1773.0" y="295" width="2.4" height="15.0" fill="rgb(242,180,40)" rx="2" ry="2" />
<text  x="1775.98" y="305.5" ></text>
</g>
<g >
<title>cfree (1,030,150,625 samples, 1.56%)</title><rect x="239.1" y="519" width="27.7" height="15.0" fill="rgb(246,123,46)" rx="2" ry="2" />
<text  x="242.07" y="529.5" >c..</text>
</g>
<g >
<title>Table::getTable (35,175,875 samples, 0.05%)</title><rect x="1788.1" y="599" width="1.0" height="15.0" fill="rgb(241,146,40)" rx="2" ry="2" />
<text  x="1791.11" y="609.5" ></text>
</g>
<g >
<title>BufferPool::acquireFrame (20,100,500 samples, 0.03%)</title><rect x="1785.7" y="503" width="0.5" height="15.0" fill="rgb(241,127,40)" rx="2" ry="2" />
<text  x="1788.68" y="513.5" ></text>
</g>
<g >
<title>[unknown] (20,100,500 samples, 0.03%)</title><rect x="1784.5" y="423" width="0.5" height="15.0" fill="rgb(242,180,40)" rx="2" ry="2" />
<text  x="1787.46" y="433.5" ></text>
</g>
<g >
<title>[libc.so.6] (66,226,122,375 samples, 100.00%)</title><rect x="10.0" y="679" width="1780.0" height="15.0" fill="rgb(231,147,29)" rx="2" ry="2" />
<text  x="13.00" y="689.5" >[libc.so.6]</text>
</g>
<g >
<title>[unknown] (75,376,875 samples, 0.11%)</title><rect x="1781.0" y="343" width="2.0" height="15.0" fill="rgb(242,180,40)" rx="2" ry="2" />
<text  x="1783.95" y="353.5" ></text>
</g>
<g >
<title>[unknown] (90,452,250 samples, 0.14%)</title><rect x="1773.0" y="183" width="2.4" height="15.0" fill="rgb(242,180,40)" rx="2" ry="2" />
<text  x="1775.98" y="193.5" ></text>
</g>
<g >
<title>[unknown] (20,100,500 samples, 0.03%)</title><rect x="1774.9" y="71" width="0.5" height="15.0" fill="rgb(242,180,40)" rx="2" ry="2" />
<text  x="1777.87" y="81.5" ></text>
</g>
</g>
</svg>
